<?xml version="1.0" encoding="UTF-8" standalone="no"?>
<!-- Created with Inkscape (http://www.inkscape.org/) -->

<svg
   xmlns:svg="http://www.w3.org/2000/svg"
   xmlns="http://www.w3.org/2000/svg"
   xmlns:sodipodi="http://sodipodi.sourceforge.net/DTD/sodipodi-0.dtd"
   xmlns:inkscape="http://www.inkscape.org/namespaces/inkscape"
   version="1.0"
   x="0.0000000"
   y="0.0000000"
   width="18.000000"
   height="20.000000"
   id="svg3083"
   inkscape:version="0.48.3.1 r9886"
   sodipodi:docname="fclef2.svg">
  <sodipodi:namedview
     pagecolor="#ffffff"
     bordercolor="#666666"
     borderopacity="1"
     objecttolerance="10"
     gridtolerance="10"
     guidetolerance="10"
     inkscape:pageopacity="0"
     inkscape:pageshadow="2"
     inkscape:window-width="772"
     inkscape:window-height="658"
     id="namedview11"
     showgrid="false"
     inkscape:zoom="11.8"
     inkscape:cx="9"
     inkscape:cy="10"
     inkscape:window-x="249"
     inkscape:window-y="14"
     inkscape:window-maximized="0"
     inkscape:current-layer="svg3083" />
  <defs
     id="defs3" />
  <g
     id="g3123">
    <path
       inkscape:connector-curvature="0"
       id="path2885"
       style="fill:#000000;fill-opacity:1"
       d="m 17.31199,3.14543 c 0.008,0.36938 -0.14955,0.73865 -0.43121,0.97985 -0.36025,0.32891 -0.90945,0.39628 -1.3583,0.22886 -0.44485,-0.17177 -0.7737,-0.61188 -0.79903,-1.09011 -0.0338,-0.37371 0.0854,-0.76581 0.35602,-1.03193 0.2551,-0.27187 0.63497,-0.4047 1.004,-0.38222 0.37984,0.008 0.74658,0.19956 0.97342,0.50374 0.17473,0.22433 0.25749,0.50935 0.2551,0.79181 z" />
    <path
       inkscape:connector-curvature="0"
       id="path2889"
       style="fill:#000000;fill-opacity:1"
       d="m 17.31199,8.98845 c 0.008,0.36967 -0.14923,0.73944 -0.43121,0.98083 -0.36025,0.32891 -0.90945,0.39628 -1.3583,0.22887 -0.44511,-0.17184 -0.77393,-0.61235 -0.79903,-1.09083 -0.0349,-0.37399 0.0921,-0.76081 0.35555,-1.03089 0.24963,-0.27846 0.6336,-0.4051 1.00145,-0.3835 0.48385,0.0133 0.92314,0.34301 1.12317,0.77515 0.074,0.16275 0.10881,0.34192 0.10837,0.52037 z" />
    <path
       inkscape:connector-curvature="0"
       id="path2893"
       style="fill:#000000;fill-opacity:1"
       d="m 13.031,7.21141 c 0.045,2.8246 -1.2154,5.57017 -3.21431,7.53651 C 7.32727,17.2362 4.06991,18.81877 0.74962,19.87604 0.3079,20.11525 -0.3583,19.79984 0.3375,19.47487 1.67546,18.86632 3.06519,18.34393 4.29764,17.52423 7.01999,15.84093 9.31723,13.19017 9.87479,9.96197 10.19971,7.99695 10.10924,5.95138 9.61684,4.02195 9.25552,2.60336 8.27233,1.13893 6.71552,0.9293 5.30268,0.71304 3.80085,1.20248 2.79257,2.22436 2.52741,2.4931 2.01116,3.23746 2.09635,4.0909 2.69837,3.61811 2.65728,3.67075 3.151,3.4506 4.28773,2.94374 5.79549,3.66448 6.079,4.91615 6.38109,6.06638 6.1475,7.52981 5.01236,8.14303 3.82712,8.78756 2.07812,8.52081 1.4165,7.25209 0.32116,5.29761 0.92347,2.62536 2.69402,1.26914 4.49714,-0.22733 7.12809,-0.28568 9.25163,0.48205 c 2.18456,0.81249 3.48666,3.07621 3.69728,5.31832 0.0573,0.46798 0.0821,0.93974 0.0821,1.41104 z" />
  </g>
</svg>
